<?xml version="1.0" encoding="utf-8"?>
<!-- Generator: Adobe Illustrator 23.0.3, SVG Export Plug-In . SVG Version: 6.00 Build 0)  -->
<svg version="1.1" id="Layer_1" xmlns="http://www.w3.org/2000/svg" xmlns:xlink="http://www.w3.org/1999/xlink" x="0px" y="0px"
	 viewBox="0 0 1014 208" style="enable-background:new 0 0 1014 208;" xml:space="preserve">
<style type="text/css">
	.st0{fill:#31A979;}
	.st1{fill:#FFFFFF;}
</style>
<path class="st0" d="M980,189H392c-6.6,0-12-5.4-12-12V28c0-6.6,5.4-12,12-12h588c6.6,0,12,5.4,12,12v149
	C992,183.6,986.6,189,980,189z"/>
<g>
	<path class="st1" d="M71.2,120.7h29.3L80,77.2l-36.4,78.8H17.2L67,55.4l25-6.8l51.6,107.5h-26.3l-6.6-14H62L71.2,120.7z"/>
	<path class="st1" d="M176.1,51.3v82.5h73.7l-6.8,22.3h-91.9V51.3H176.1z"/>
	<path class="st1" d="M285.6,51.3v82.5h73.7l-6.8,22.3h-91.9V51.3H285.6z"/>
	<path d="M520.1,51.3v104.8h-25l-54.8-69.1v69.1h-25V55.4l25-6.8l54.8,69.1V51.3H520.1z"/>
	<path d="M565.3,51.3v104.8h-25V51.3H565.3z"/>
	<path d="M716,51.3v104.8h-25V95.9l-31.9,56.8h-16.7l-31.9-54.5v57.9h-25V55.4l25-6.8l40.5,74.1l40-71.4H716z"/>
	<path d="M761.2,133.8h76.4l-6.8,22.3h-94.6V51.3h101.4l-6.8,22.3h-69.7v19h64.9v22.3h-64.9V133.8z"/>
	<path d="M848.4,83.2c0-16.1,12.7-31.9,37.5-31.9h71.3l-6.8,22.3h-64.3c-7.7,0-11.5,4.9-11.5,9.6c0,4.9,3.9,9.5,11.5,9.5h36.2
		c24.4,0,37.1,15.8,37.1,31.9c0,15.7-12,31.6-37.1,31.6h-74l6.8-22.3h67c7.6,0,11.5-4.5,11.5-9.3c0-4.7-3.8-9.7-11.5-9.7h-36.2
		C860.7,114.8,848.4,99,848.4,83.2z"/>
</g>
</svg>
